<svg width="24" height="24" viewBox="0 0 24 24" fill="none" xmlns="http://www.w3.org/2000/svg">
<path fill-rule="evenodd" clip-rule="evenodd" d="M6.75736 4.75736C7.88258 3.63214 9.4087 3 11 3H13C14.5913 3 16.1174 3.63214 17.2426 4.75736C18.3679 5.88258 19 7.4087 19 9C19 9.55228 18.5523 10 18 10C17.4477 10 17 9.55228 17 9C17 7.93913 16.5786 6.92172 15.8284 6.17157C15.0783 5.42143 14.0609 5 13 5H11C9.93913 5 8.92172 5.42143 8.17157 6.17157C7.42143 6.92172 7 7.93913 7 9V15C7 16.0609 7.42143 17.0783 8.17157 17.8284C8.92172 18.5786 9.93913 19 11 19H13C14.0609 19 15.0783 18.5786 15.8284 17.8284C16.5786 17.0783 17 16.0609 17 15C17 14.4477 17.4477 14 18 14C18.5523 14 19 14.4477 19 15C19 16.5913 18.3679 18.1174 17.2426 19.2426C16.1174 20.3679 14.5913 21 13 21H11C9.4087 21 7.88258 20.3679 6.75736 19.2426C5.63214 18.1174 5 16.5913 5 15V9C5 7.4087 5.63214 5.88258 6.75736 4.75736Z" fill="#354052" style="fill:#354052;fill:color(display-p3 0.2078 0.2510 0.3216);fill-opacity:1;"/>
</svg>
