<svg width="24" height="24" viewBox="0 0 24 24" fill="none" xmlns="http://www.w3.org/2000/svg">
<path fill-rule="evenodd" clip-rule="evenodd" d="M10.0866 3.3806C11.0002 3.00217 12.0055 2.90315 12.9755 3.09608C13.9454 3.289 14.8363 3.76521 15.5355 4.46447C16.2348 5.16373 16.711 6.05465 16.9039 7.02455C17.0969 7.99446 16.9978 8.99979 16.6194 9.91342C16.2758 10.743 15.7157 11.4632 15 12C15.7157 12.5368 16.2758 13.257 16.6194 14.0866C16.9978 15.0002 17.0969 16.0055 16.9039 16.9755C16.711 17.9454 16.2348 18.8363 15.5355 19.5355C14.8363 20.2348 13.9454 20.711 12.9755 20.9039C12.0055 21.0969 11.0002 20.9978 10.0866 20.6194C9.17295 20.241 8.39206 19.6001 7.84265 18.7779C7.29325 17.9556 7 16.9889 7 16C7 15.4477 7.44772 15 8 15C8.55228 15 9 15.4477 9 16C9 16.5933 9.17595 17.1734 9.50559 17.6667C9.83524 18.1601 10.3038 18.5446 10.8519 18.7716C11.4001 18.9987 12.0033 19.0581 12.5853 18.9424C13.1672 18.8266 13.7018 18.5409 14.1213 18.1213C14.5409 17.7018 14.8266 17.1672 14.9424 16.5853C15.0581 16.0033 14.9987 15.4001 14.7716 14.8519C14.5446 14.3038 14.1601 13.8352 13.6667 13.5056C13.1734 13.1759 12.5933 13 12 13C11.4477 13 11 12.5523 11 12C11 11.4477 11.4477 11 12 11C12.5933 11 13.1734 10.8241 13.6667 10.4944C14.1601 10.1648 14.5446 9.69623 14.7716 9.14805C14.9987 8.59987 15.0581 7.99667 14.9424 7.41473C14.8266 6.83279 14.5409 6.29824 14.1213 5.87868C13.7018 5.45912 13.1672 5.1734 12.5853 5.05765C12.0033 4.94189 11.4001 5.0013 10.8519 5.22836C10.3038 5.45543 9.83524 5.83994 9.50559 6.33329C9.17595 6.82664 9 7.40666 9 8C9 8.55229 8.55228 9 8 9C7.44772 9 7 8.55229 7 8C7 7.0111 7.29325 6.0444 7.84265 5.22215C8.39206 4.39991 9.17295 3.75904 10.0866 3.3806Z" fill="#354052" style="fill:#354052;fill:color(display-p3 0.2078 0.2510 0.3216);fill-opacity:1;"/>
</svg>
