<svg width="24" height="24" viewBox="0 0 24 24" fill="none" xmlns="http://www.w3.org/2000/svg">
<path fill-rule="evenodd" clip-rule="evenodd" d="M17.6569 6.34319C18.0474 6.73371 18.0474 7.36688 17.6569 7.7574L13.4143 12L17.6569 16.2427C18.0474 16.6332 18.0474 17.2664 17.6569 17.6569C17.2664 18.0474 16.6332 18.0474 16.2427 17.6569L12 13.4143L7.7574 17.6569C7.36688 18.0474 6.73371 18.0474 6.34319 17.6569C5.95266 17.2664 5.95266 16.6332 6.34319 16.2427L10.5858 12L6.34319 7.7574C5.95266 7.36688 5.95266 6.73371 6.34319 6.34319C6.73371 5.95266 7.36688 5.95266 7.7574 6.34319L12 10.5858L16.2427 6.34319C16.6332 5.95266 17.2664 5.95266 17.6569 6.34319Z" fill="#354052" style="fill:#354052;fill:color(display-p3 0.2078 0.2510 0.3216);fill-opacity:1;"/>
</svg>
