<svg width="24" height="24" viewBox="0 0 24 24" fill="none" xmlns="http://www.w3.org/2000/svg">
<path fill-rule="evenodd" clip-rule="evenodd" d="M8.46447 4.46447C9.40215 3.52678 10.6739 3 12 3C13.3261 3 14.5979 3.52678 15.5355 4.46447C16.4732 5.40215 17 6.67392 17 8C17 9.32608 16.4732 10.5979 15.5355 11.5355C15.3673 11.7038 15.1882 11.8589 15 12C15.1882 12.1411 15.3673 12.2962 15.5355 12.4645C16.4732 13.4021 17 14.6739 17 16C17 17.3261 16.4732 18.5979 15.5355 19.5355C14.5979 20.4732 13.3261 21 12 21C10.6739 21 9.40215 20.4732 8.46447 19.5355C7.52678 18.5979 7 17.3261 7 16C7 14.6739 7.52678 13.4021 8.46447 12.4645C8.63275 12.2962 8.81178 12.1411 8.99997 12C8.81178 11.8589 8.63275 11.7038 8.46447 11.5355C7.52678 10.5979 7 9.32608 7 8C7 6.67392 7.52678 5.40215 8.46447 4.46447ZM12 11C12.7956 11 13.5587 10.6839 14.1213 10.1213C14.6839 9.55871 15 8.79565 15 8C15 7.20435 14.6839 6.44129 14.1213 5.87868C13.5587 5.31607 12.7956 5 12 5C11.2044 5 10.4413 5.31607 9.87868 5.87868C9.31607 6.44129 9 7.20435 9 8C9 8.79565 9.31607 9.55871 9.87868 10.1213C10.4413 10.6839 11.2044 11 12 11ZM12 13C11.2044 13 10.4413 13.3161 9.87868 13.8787C9.31607 14.4413 9 15.2044 9 16C9 16.7956 9.31607 17.5587 9.87868 18.1213C10.4413 18.6839 11.2044 19 12 19C12.7956 19 13.5587 18.6839 14.1213 18.1213C14.6839 17.5587 15 16.7956 15 16C15 15.2044 14.6839 14.4413 14.1213 13.8787C13.5587 13.3161 12.7956 13 12 13Z" fill="#354052" style="fill:#354052;fill:color(display-p3 0.2078 0.2510 0.3216);fill-opacity:1;"/>
</svg>
