<svg width="24" height="24" viewBox="0 0 24 24" fill="none" xmlns="http://www.w3.org/2000/svg">
<path fill-rule="evenodd" clip-rule="evenodd" d="M15.3092 4.04909C15.7212 4.18303 16 4.56693 16 5.00007V15.0001H17C17.5523 15.0001 18 15.4478 18 16.0001C18 16.5524 17.5523 17.0001 17 17.0001H16V20.0001C16 20.5524 15.5523 21.0001 15 21.0001C14.4477 21.0001 14 20.5524 14 20.0001V17.0001H7C6.62388 17.0001 6.27957 16.789 6.10889 16.4538C5.93821 16.1187 5.97004 15.7161 6.19127 15.4119L14.1913 4.4119C14.446 4.0616 14.8973 3.91514 15.3092 4.04909ZM14 15.0001V8.07525L8.96377 15.0001H14Z" fill="#354052" style="fill:#354052;fill:color(display-p3 0.2078 0.2510 0.3216);fill-opacity:1;"/>
</svg>
