<svg width="24" height="24" viewBox="0 0 24 24" fill="none" xmlns="http://www.w3.org/2000/svg">
<path fill-rule="evenodd" clip-rule="evenodd" d="M7.29302 5.29289C7.48056 5.10536 7.73491 5 8.00013 5H19.0001C19.5306 5 20.0393 5.21071 20.4143 5.58579C20.7894 5.96086 21.0001 6.46957 21.0001 7V17C21.0001 17.5304 20.7894 18.0391 20.4143 18.4142C20.0393 18.7893 19.5306 19 19.0001 19H8.00013C7.73491 19 7.48056 18.8946 7.29302 18.7071L2.29302 13.7071C2.2799 13.694 2.26715 13.6805 2.25477 13.6667C1.84481 13.2083 1.61816 12.6149 1.61816 12C1.61816 11.3851 1.84481 10.7917 2.25477 10.3333C2.26715 10.3195 2.2799 10.306 2.29302 10.2929L7.29302 5.29289ZM8.41434 7L3.7322 11.6821C3.65861 11.7715 3.61816 11.8838 3.61816 12C3.61816 12.1162 3.65861 12.2285 3.7322 12.3179L8.41434 17H19.0001V7H8.41434Z" fill="#354052" style="fill:#354052;fill:color(display-p3 0.2078 0.2510 0.3216);fill-opacity:1;"/>
</svg>
