<svg width="24" height="24" viewBox="0 0 24 24" fill="none" xmlns="http://www.w3.org/2000/svg">
<path fill-rule="evenodd" clip-rule="evenodd" d="M8.46447 4.46447C9.40215 3.52678 10.6739 3 12 3C13.3261 3 14.5979 3.52678 15.5355 4.46447C16.4732 5.40215 17 6.67392 17 8V16C17 17.3261 16.4732 18.5979 15.5355 19.5355C14.5979 20.4732 13.3261 21 12 21C10.6739 21 9.40215 20.4732 8.46447 19.5355C7.52678 18.5979 7 17.3261 7 16V8C7 6.67392 7.52678 5.40215 8.46447 4.46447ZM12 5C11.2044 5 10.4413 5.31607 9.87868 5.87868C9.31607 6.44129 9 7.20435 9 8V16C9 16.7956 9.31607 17.5587 9.87868 18.1213C10.4413 18.6839 11.2044 19 12 19C12.7956 19 13.5587 18.6839 14.1213 18.1213C14.6839 17.5587 15 16.7956 15 16V8C15 7.20435 14.6839 6.44129 14.1213 5.87868C13.5587 5.31607 12.7956 5 12 5Z" fill="#354052" style="fill:#354052;fill:color(display-p3 0.2078 0.2510 0.3216);fill-opacity:1;"/>
</svg>
