<svg width="24" height="24" viewBox="0 0 24 24" fill="none" xmlns="http://www.w3.org/2000/svg">
<path fill-rule="evenodd" clip-rule="evenodd" d="M12 5C11.2044 5 10.4413 5.31607 9.87868 5.87868C9.31608 6.44129 9.00001 7.20435 9.00001 8C9.00001 8.55228 8.55229 9 8.00001 9C7.44772 9 7.00001 8.55228 7.00001 8C7.00001 6.67392 7.52679 5.40215 8.46447 4.46447C9.40215 3.52678 10.6739 3 12 3C13.3261 3 14.5979 3.52678 15.5355 4.46447C16.4732 5.40215 17 6.67392 17 8C17 9.44157 16.2599 10.5929 15.6414 11.4145C15.6409 11.4152 15.6403 11.4159 15.6398 11.4166L9.99169 19H16C16.5523 19 17 19.4477 17 20C17 20.5523 16.5523 21 16 21H8.00001C7.62183 21 7.27601 20.7867 7.10633 20.4487C6.93664 20.1107 6.97212 19.706 7.19801 19.4027L14.0422 10.2134C14.6134 9.45504 15 8.75318 15 8C15 7.20435 14.6839 6.44129 14.1213 5.87868C13.5587 5.31607 12.7957 5 12 5Z" fill="#354052" style="fill:#354052;fill:color(display-p3 0.2078 0.2510 0.3216);fill-opacity:1;"/>
</svg>
